<svg xmlns="http://www.w3.org/2000/svg" viewBox="0 0 100 100" width="100" height="100" role="img" aria-label="WEBRO">
  <title>WEBRO</title>
  <defs>
    <linearGradient id="bg" x1="0" y1="0" x2="0" y2="1">
      <stop offset="0" stop-color="#1A4326"/>
      <stop offset="1" stop-color="#0F2A17"/>
    </linearGradient>
    <linearGradient id="lime" x1="0" y1="1" x2="1" y2="0">
      <stop offset="0" stop-color="#6FB52E"/>
      <stop offset="1" stop-color="#A3E635"/>
    </linearGradient>
  </defs>
  <rect x="0" y="0" width="100" height="100" rx="22" fill="url(#bg)"/>
  <g transform="translate(0,4)" fill="none" stroke-linecap="round" stroke-linejoin="round">
    <polyline points="20,40 38,30 56,34 78,20" stroke="#8CC63F" stroke-width="3" opacity=".95"/>
    <path d="M16,34 L30,74 L50,44 L70,74 L84,30" stroke="url(#lime)" stroke-width="8.5"/>
    <path d="M84,30 L73,32 M84,30 L82,43" stroke="url(#lime)" stroke-width="5"/>
    <g fill="#A3E635">
      <circle cx="20" cy="40" r="3.2"/><circle cx="38" cy="30" r="3.2"/>
      <circle cx="56" cy="34" r="3.2"/><circle cx="78" cy="20" r="3.8"/>
    </g>
    <g transform="translate(50,55)">
      <circle r="9.6" fill="#0F2A17"/>
      <circle r="9.2" fill="none" stroke="#F3F0E7" stroke-width="1.8"/>
      <ellipse rx="4.3" ry="9.2" fill="none" stroke="#F3F0E7" stroke-width="1.5"/>
      <line x1="-9.2" y1="0" x2="9.2" y2="0" stroke="#F3F0E7" stroke-width="1.5"/>
    </g>
  </g>
</svg>
